<svg width="35" height="22" viewBox="0 0 35 22" fill="none" xmlns="http://www.w3.org/2000/svg">
<path d="M19.0631 22C7.10494 22 0.284197 13.7417 0 0H5.99001C6.18676 10.0861 10.6027 14.3584 14.1006 15.2392V0H19.7408V8.6987C23.1949 8.32432 26.8239 4.36036 28.0481 0H33.6883C33.227 2.26141 32.3074 4.4026 30.9871 6.28964C29.6668 8.17669 27.9741 9.769 26.015 10.967C28.2018 12.0616 30.1334 13.6109 31.6822 15.5127C33.231 17.4146 34.3618 19.6256 35 22H28.7914C28.2185 19.9377 27.054 18.0916 25.444 16.693C23.834 15.2945 21.8501 14.4057 19.7408 14.1381V22H19.0631Z" fill="black"/>
</svg>
